<svg width="105" height="14" viewBox="0 0 105 14" fill="none" xmlns="http://www.w3.org/2000/svg">
<path d="M0.81 6.556C0.81 4.684 1.428 3.124 2.664 1.876C3.9 0.627999 5.472 0.00399888 7.38 0.00399888C9.324 0.00399888 10.896 0.585999 12.096 1.75L10.98 3.478C10.512 3.082 9.96 2.758 9.324 2.506C8.7 2.254 8.088 2.128 7.488 2.128C6.144 2.128 5.094 2.548 4.338 3.388C3.582 4.228 3.204 5.272 3.204 6.52C3.204 7.78 3.588 8.86 4.356 9.76C5.124 10.648 6.174 11.092 7.506 11.092C8.874 11.092 10.11 10.552 11.214 9.472L12.438 11.146C11.082 12.526 9.408 13.216 7.416 13.216C5.436 13.216 3.84 12.586 2.628 11.326C1.416 10.066 0.81 8.476 0.81 6.556ZM12.6688 13L17.1508 0.219999H19.5988L24.0808 13H21.7048L20.6068 9.724H16.1248L15.0448 13H12.6688ZM16.7008 7.834H20.0308L18.8968 4.414L18.3928 2.434H18.3568C18.1648 3.274 17.9968 3.934 17.8528 4.414L16.7008 7.834ZM25.4198 13V0.219999H29.6318C30.7118 0.219999 31.5158 0.333999 32.0438 0.561999C32.7158 0.837999 33.2438 1.276 33.6278 1.876C34.0118 2.476 34.2038 3.202 34.2038 4.054C34.2038 4.834 34.0118 5.548 33.6278 6.196C33.2438 6.832 32.7218 7.282 32.0618 7.546V7.582C32.1698 7.714 32.3078 7.936 32.4758 8.248L35.1038 13H32.4938L29.9738 8.23H27.7418V13H25.4198ZM27.7418 6.214H29.8298C30.4538 6.214 30.9458 6.034 31.3058 5.674C31.6658 5.302 31.8458 4.804 31.8458 4.18C31.8458 3.292 31.5098 2.71 30.8378 2.434C30.5138 2.29 30.0458 2.218 29.4338 2.218H27.7418V6.214ZM36.0875 13L37.1315 0.219999H39.5975L42.1175 6.538L42.7475 8.41H42.7835C43.0115 7.666 43.2215 7.042 43.4135 6.538L45.9335 0.219999H48.3995L49.4435 13H47.1215L46.5995 5.854C46.5755 5.602 46.5635 5.314 46.5635 4.99C46.5635 4.654 46.5695 4.384 46.5815 4.18V3.874H46.5455C46.2695 4.702 46.0355 5.362 45.8435 5.854L43.7735 10.804H41.7575L39.6875 5.854L38.9855 3.856H38.9495C38.9855 4.624 38.9795 5.29 38.9315 5.854L38.4095 13H36.0875ZM50.2958 13L54.7778 0.219999H57.2258L61.7078 13H59.3318L58.2338 9.724H53.7518L52.6718 13H50.2958ZM54.3278 7.834H57.6578L56.5238 4.414L56.0198 2.434H55.9838C55.7918 3.274 55.6238 3.934 55.4798 4.414L54.3278 7.834ZM62.0276 6.556C62.0276 4.684 62.6456 3.124 63.8816 1.876C65.1176 0.627999 66.6896 0.00399888 68.5976 0.00399888C70.5416 0.00399888 72.1136 0.585999 73.3136 1.75L72.1976 3.478C71.7296 3.082 71.1776 2.758 70.5416 2.506C69.9176 2.254 69.3056 2.128 68.7056 2.128C67.3616 2.128 66.3116 2.548 65.5556 3.388C64.7996 4.228 64.4216 5.272 64.4216 6.52C64.4216 7.78 64.8056 8.86 65.5736 9.76C66.3416 10.648 67.3916 11.092 68.7236 11.092C70.0916 11.092 71.3276 10.552 72.4316 9.472L73.6556 11.146C72.2996 12.526 70.6256 13.216 68.6336 13.216C66.6536 13.216 65.0576 12.586 63.8456 11.326C62.6336 10.066 62.0276 8.476 62.0276 6.556ZM74.2179 6.52C74.2179 4.672 74.8359 3.124 76.0719 1.876C77.3199 0.627999 78.9039 0.00399888 80.8239 0.00399888C82.7439 0.00399888 84.3219 0.627999 85.5579 1.876C86.8059 3.124 87.4299 4.672 87.4299 6.52C87.4299 8.416 86.8059 10.006 85.5579 11.29C84.3219 12.574 82.7439 13.216 80.8239 13.216C78.9039 13.216 77.3199 12.574 76.0719 11.29C74.8359 10.006 74.2179 8.416 74.2179 6.52ZM76.6119 6.52C76.6119 7.828 77.0079 8.92 77.7999 9.796C78.6039 10.66 79.6119 11.092 80.8239 11.092C82.0359 11.092 83.0379 10.66 83.8299 9.796C84.6339 8.92 85.0359 7.828 85.0359 6.52C85.0359 5.272 84.6339 4.228 83.8299 3.388C83.0379 2.548 82.0359 2.128 80.8239 2.128C79.6119 2.128 78.6039 2.548 77.7999 3.388C77.0079 4.228 76.6119 5.272 76.6119 6.52ZM89.4147 13V0.219999H91.7367V13H89.4147ZM94.4688 13V0.219999H96.7908L101.633 7.6C101.777 7.828 101.933 8.11 102.101 8.446C102.281 8.77 102.425 9.04 102.533 9.256L102.695 9.58H102.731C102.647 8.764 102.605 8.104 102.605 7.6V0.219999H104.909V13H102.605L97.7628 5.638C97.6188 5.41 97.4568 5.134 97.2768 4.81C97.1088 4.474 96.9708 4.198 96.8628 3.982L96.7008 3.658H96.6648C96.7488 4.474 96.7908 5.134 96.7908 5.638V13H94.4688Z" fill="#7B61FF"/>
</svg>